<?xml version="1.0" encoding="utf-8"?>
<!-- Generator: Adobe Illustrator 25.2.3, SVG Export Plug-In . SVG Version: 6.00 Build 0)  -->
<svg version="1.1" id="レイヤー_1" xmlns="http://www.w3.org/2000/svg" xmlns:xlink="http://www.w3.org/1999/xlink" x="0px"
	 y="0px" viewBox="0 0 32 32" style="enable-background:new 0 0 32 32;" xml:space="preserve">
<style type="text/css">
	.st0{fill:#333333;}
</style>
<path class="st0" d="M21,4h4v4h-4V4z M25,22.8c0,1.4-0.3,5.8-4.2,7.1L17,28c2.8-1.2,4-3.2,4-5.2c0-2.8,0-11.8,0-11.8l4,0
	C25,11,25,19.7,25,22.8z M14,4v6.3c-0.5-0.2-1.5-0.2-2-0.2c-3.7,0-7,1.9-7,6.9c0,6,4.5,7,7.6,7c1.2,0,4-0.1,5.4-0.5V4H14z
	 M12.6,20.7C10.8,20.7,9,19.9,9,17s1.8-3.5,3.6-3.5c0.4,0,0.9,0.1,1.4,0.2v6.8C13.5,20.6,13,20.7,12.6,20.7z"/>
</svg>
