<?xml version="1.0" encoding="utf-8"?>
<!-- Generator: Adobe Illustrator 25.2.3, SVG Export Plug-In . SVG Version: 6.00 Build 0)  -->
<svg version="1.1" id="レイヤー_1" xmlns="http://www.w3.org/2000/svg" xmlns:xlink="http://www.w3.org/1999/xlink" x="0px"
	 y="0px" viewBox="0 0 64 64" style="enable-background:new 0 0 64 64;" xml:space="preserve">
<style type="text/css">
	.st0{fill:#333333;}
</style>
<path class="st0" d="M27,7c-0.5,0-1,0.4-1,1v7H11c-0.6,0-1,0.4-1,1v7H3c-0.5,0-1,0.5-1,1v7H1.3c-0.5,0-0.9,0.3-1,0.8
	c-0.1,0.3-1.8,8.2,3,14.8c3.5,4.8,9.5,7.6,17.7,8.3c1.1,0.1,2.1,0.1,3.1,0.1c19.9,0,27.9-17.1,29.5-20.9c7.8,0.6,10.2-5.7,10.2-5.7
	c0.1-0.4,0-0.8-0.3-1.1c-3.1-2.6-6.1-2.7-8.2-2c0.2-4.6-4.6-7.9-4.8-8C50.4,17,50.1,17,49.9,17c-0.3,0.1-0.5,0.2-0.6,0.4
	c-4.1,6.2-2.4,10.6-1.5,12.4C46.2,31,44.1,31,44.1,31H44v-7c0-0.5-0.5-1-1-1h-7V8c0-0.6-0.5-1-1-1H27z M28,9h6v6h-6V9z M12,17h14v6
	h-6v-3c0-0.6-0.4-1-1-1s-1,0.4-1,1v3h-6V17z M28,17h6v14h-6v-6h3c0.5,0,1-0.5,1-1s-0.5-1-1-1h-3V17z M50.3,19.5c1.4,1.2,4,4,2.8,7.2
	c-0.2,0.4,0,0.9,0.3,1.2c0.4,0.3,0.9,0.3,1.2,0c0.1-0.1,3.2-2.4,7.1,0.5c-0.8,1.4-3.1,4.5-8.6,3.7c-0.5-0.1-0.9,0.2-1.1,0.7
	C52,32.9,45.2,53,24.2,53c-1,0-1.9,0-3-0.1C13.6,52.2,8.1,49.7,5,45.4C1.5,40.7,1.9,35,2.2,33H3h40c0,0,0,0,0,0h1
	c0.1,0,3.5,0.1,5.7-2.3c0.3-0.4,0.4-0.9,0-1.3C49.8,29.3,46.8,25.6,50.3,19.5z M4,25h6v6H4V25z M12,25h6v6h-6V25z M20,25h6v6h-6V25z
	 M36,25h6v6h-6V25z M12.5,38c-1.4,0-2.5,1.1-2.5,2.5s1.1,2.5,2.5,2.5s2.5-1.1,2.5-2.5S13.9,38,12.5,38z M42.3,38.5
	c-0.3,0-0.5,0.1-0.7,0.3c-0.4,0.4-0.3,1.1,0.1,1.4l1.5,1.3c0.2,0.2,0.4,0.2,0.6,0.2c0.3,0,0.6-0.1,0.8-0.4C45,41,45,40.4,44.5,40
	L43,38.7C42.8,38.6,42.5,38.5,42.3,38.5z M39,41.9c-0.3,0-0.5,0-0.7,0.2c-0.4,0.3-0.5,1-0.1,1.4l1.3,1.6c0.2,0.2,0.5,0.4,0.8,0.4
	c0.2,0,0.4-0.1,0.6-0.2c0.4-0.3,0.5-1,0.1-1.4l-1.3-1.6C39.5,42.1,39.3,41.9,39,41.9z M34.8,44.5c-0.1,0-0.3,0-0.4,0.1
	c-0.5,0.3-0.7,0.9-0.4,1.3l0.9,1.8c0.2,0.3,0.5,0.5,0.9,0.5c0.2,0,0.3,0,0.5-0.1c0.5-0.3,0.7-0.9,0.4-1.3l-0.9-1.8
	C35.6,44.7,35.2,44.5,34.8,44.5z M30.5,46.2c-0.1,0-0.3,0-0.4,0c-0.5,0.1-0.9,0.7-0.7,1.2l0.5,1.9c0.1,0.5,0.5,0.8,1,0.8
	c0.1,0,0.2,0,0.2,0c0.5-0.1,0.9-0.7,0.7-1.2L31.3,47C31.2,46.6,30.9,46.3,30.5,46.2z M25.5,47c-0.6,0-1,0.5-0.9,1l0.1,2
	c0,0.5,0.5,0.9,1,0.9c0,0,0,0,0.1,0c0.6,0,1-0.5,0.9-1l-0.1-2C26.6,47.3,26.1,46.9,25.5,47z"/>
</svg>
