<svg xmlns="http://www.w3.org/2000/svg"  viewBox="0 0 50 50" width="100px" height="100px"><path d="M 22.462891 15.003906 C 21.863562 15.016969 21.255125 15.082359 20.640625 15.193359 C 17.634625 15.742359 15.176312 17.284797 13.320312 19.716797 C 11.595313 21.964797 10.759609 24.526953 11.099609 27.376953 C 11.387609 29.781953 12.485922 31.715688 14.419922 33.179688 C 16.510922 34.748688 18.889172 35.244297 21.451172 34.904297 C 24.562172 34.486297 27.019344 32.943938 28.902344 30.460938 C 28.950344 30.397938 28.98525 30.328625 29.03125 30.265625 C 29.51625 31.165625 30.168375 31.974688 30.984375 32.679688 C 32.831375 34.262687 35.020875 34.948953 37.421875 35.001953 C 38.107875 34.922953 38.81825 34.896625 39.53125 34.765625 C 41.98425 34.264625 44.121281 33.156672 45.863281 31.388672 C 48.316281 28.905672 49.346437 26.002406 48.898438 22.441406 C 48.555437 19.908406 47.261734 17.983594 45.177734 16.558594 C 42.882734 15.001594 40.349203 14.739844 37.658203 15.214844 C 34.536203 15.765844 32.224688 17.075078 30.304688 19.580078 C 29.658687 18.328078 28.768359 17.267609 27.568359 16.474609 C 25.980609 15.396109 24.260875 14.964719 22.462891 15.003906 z M 4 20 A 1.0001 1.0001 0 1 0 4 22 L 8 22 A 1.0001 1.0001 0 1 0 8 20 L 4 20 z M 22.134766 20.011719 C 22.734971 20.038039 23.345266 20.193922 23.962891 20.498047 C 24.511891 20.759047 24.799406 21.048188 25.191406 21.492188 C 25.531406 21.884187 25.557219 21.858906 25.949219 21.753906 C 27.262219 21.414906 28.261844 21.140125 29.464844 20.828125 C 29.007844 21.595125 28.760625 22.155422 28.515625 22.982422 L 21.798828 22.982422 C 21.406828 22.982422 21.223531 23.243391 21.144531 23.400391 C 20.778531 24.080391 20.1525 25.44 19.8125 26.25 C 19.6305 26.695 19.759594 27.035156 20.308594 27.035156 L 25.353516 27.035156 C 25.092516 27.401156 24.770156 27.948328 24.535156 28.236328 C 23.359156 29.569328 21.868797 30.198891 20.091797 29.962891 C 18.026797 29.674891 16.5885 27.948422 16.5625 25.857422 C 16.5365 23.739422 17.452469 22.040625 19.230469 20.890625 C 20.161719 20.28625 21.134424 19.967852 22.134766 20.011719 z M 39.410156 20.207031 C 41.50291 20.138521 43.346828 21.521578 43.751953 23.751953 C 43.802953 24.008953 43.802125 24.265609 43.828125 24.599609 C 43.699125 26.813609 42.594547 28.461578 40.560547 29.517578 C 39.196547 30.212578 37.779281 30.289875 36.363281 29.671875 C 34.510281 28.847875 33.532094 26.814641 33.996094 24.806641 C 34.562094 22.386641 36.107953 20.867172 38.501953 20.326172 C 38.807578 20.255422 39.111191 20.216818 39.410156 20.207031 z M 1 24 A 1.0001 1.0001 0 1 0 1 26 L 7 26 A 1.0001 1.0001 0 1 0 7 24 L 1 24 z M 4 28 A 1.0001 1.0001 0 1 0 4 30 L 6 30 A 1.0001 1.0001 0 1 0 6 28 L 4 28 z"/></svg>