<?xml version="1.0" encoding="utf-8"?>
<!-- Generator: Adobe Illustrator 25.2.3, SVG Export Plug-In . SVG Version: 6.00 Build 0)  -->
<svg version="1.1" id="レイヤー_1" xmlns="http://www.w3.org/2000/svg" xmlns:xlink="http://www.w3.org/1999/xlink" x="0px"
	 y="0px" viewBox="0 0 50 50" style="enable-background:new 0 0 50 50;" xml:space="preserve">
<style type="text/css">
	.st0{fill:#333333;}
</style>
<path class="st0" d="M30,3c-0.2,0-0.3,0-0.5,0.1c-0.6,0.3-1,0.8-1.4,1.2C27.8,4.7,27.5,5,27.5,5c0,0,0,0,0,0C26.5,6.6,26,8.3,26,10
	c0,1.3,0.3,2.6,0.8,3.9c1.3,3,3.8,5.4,6.8,6.5h0c0.1,0.1,0.3,0.1,0.4,0.1c0,0,0,0,0,0c0,0,0.1,0,0.1,0c0.1,0,0.3,0.1,0.6,0.2
	c0.8,0.2,1.6,0.2,2.3,0.3c3.2,0.1,5.4-1.1,6.7-2.5c0.7-0.7,1.2-1.4,1.5-1.9c0.3-0.6,0.6-1.1,0.6-1.1h0c0.3-0.5,0.2-1.1-0.3-1.4
	c-0.5-0.3-1.1-0.2-1.4,0.3c-0.8,1.1-1.7,1.8-3,2.1s-2.7,0.3-4.5-0.2c-0.2-0.1-0.5-0.2-0.8-0.2c0,0,0,0,0,0c-0.3-0.1-0.6-0.2-1-0.4
	l0,0l0,0c-0.6-0.3-1.2-0.6-1.7-1.1c-1.4-1.1-2.6-2.9-3-4.9S30,5.9,30.8,4.5c0.2-0.3,0.2-0.7,0-1S30.4,3,30,3z M21,5
	c-0.2,0-0.5,0.1-0.6,0.2c-1.6,1.3-3.1,3.3-3.1,3.3c0,0,0,0,0,0c-3,4.3-2.8,10-0.5,14.4c0.4,0.7,0.8,1.5,1.3,2.1c0,0,0,0,0,0
	c0.4,0.5,0.8,1.3,1.5,1.9c0.2,0.2,0.4,0.5,0.6,0.7c0.1,0.1,0.1,0.1,0.2,0.2c0,0,0,0,0,0c0.2,0.2,0.4,0.4,0.6,0.6l0,0c0,0,0,0,0,0
	l0,0c0,0,0,0,0,0c0.2,0.2,0.5,0.4,0.7,0.6c0,0,0,0,0,0c0,0,0.1,0,0.2,0.1c0.2,0.2,0.5,0.4,0.8,0.6c0,0,0.1,0,0.1,0.1c0,0,0,0,0.1,0
	h0c0.1,0.1,0.2,0.1,0.3,0.2c0,0,0.1,0.1,0.2,0.1c0.2,0.1,0.4,0.2,0.6,0.4c0,0,0,0,0.1,0c0,0,0,0,0.1,0c0,0,0,0,0,0
	c0.2,0.1,0.3,0.2,0.5,0.3c0.1,0,0.1,0.1,0.1,0.1c0,0,0,0,0,0c0.1,0.1,0.2,0.1,0.3,0.2c0.1,0.1,0.1,0.1,0.1,0.1
	c0.2,0.1,0.5,0.2,0.7,0.3c0,0,0,0,0.1,0c0,0,0.1,0,0.1,0.1c0.2,0.1,0.4,0.2,0.6,0.3c0,0,0,0,0,0c0,0,0.1,0,0.2,0.1c0,0,0,0,0,0
	c0.2,0.1,0.4,0.1,0.6,0.2c0.1,0,0.2,0.1,0.3,0.1c0,0,0,0,0,0c0.2,0.1,0.5,0.2,0.9,0.3c0,0,0,0,0,0c1.6,0.3,3,0.4,4.4,0.3
	c5.5-0.1,9.1-2.5,11.1-4.9c2.1-2.4,2.8-4.8,2.8-4.8c0.1-0.5-0.1-1-0.5-1.2c-0.4-0.2-1-0.1-1.3,0.3c-2.7,3.9-7.8,5.9-13.5,4.4
	c-0.2-0.1-0.5-0.1-0.7-0.2c0,0,0,0-0.1,0c0,0-0.1,0-0.2-0.1c0,0,0,0,0,0c-0.2-0.1-0.4-0.1-0.5-0.2c0,0,0,0,0,0
	c-0.1,0-0.2-0.1-0.2-0.1c-0.2-0.1-0.4-0.2-0.5-0.2c0,0,0,0,0,0c-0.1,0-0.1-0.1-0.1,0c0,0,0,0-0.1,0c-0.2-0.1-0.4-0.2-0.7-0.3l0,0
	c0,0,0,0,0,0c-0.1-0.1-0.2-0.1-0.3-0.2c0,0,0,0,0,0c-0.1,0-0.1-0.1-0.2-0.1v0c-0.1-0.1-0.3-0.1-0.4-0.2c0,0,0,0,0,0c0,0-0.1,0-0.1,0
	h0l0,0c-0.2-0.1-0.4-0.2-0.5-0.3c0,0,0,0-0.1,0c0,0,0,0-0.1-0.1c-0.1-0.1-0.2-0.1-0.3-0.2h0c0,0,0,0,0,0c-0.2-0.2-0.4-0.3-0.7-0.5
	l0,0c-0.1,0-0.1-0.1-0.1-0.1c0,0,0,0,0,0c-2.5-2-4.5-4.7-5.4-7.8v0c-0.9-3,0-6.7,1.6-9.5c0.2-0.3,0.2-0.7,0-1C21.7,5.2,21.4,5,21,5z
	 M10,8C9.8,8,9.5,8.1,9.3,8.3c-0.1,0-0.1,0.1-0.1,0.1c-1.9,1.8-3.3,4-3.4,4c-4,5.8-3.5,14.8-0.5,20.9c0,0,0,0,0,0
	c0.1,0.2,0.2,0.3,0.2,0.4c0,0.1,0.1,0.1,0.1,0.2c0.1,0.2,0.1,0.2,0.1,0.2c0,0.1,0.1,0.2,0.1,0.2c0,0,0,0,0,0
	c0.1,0.1,0.2,0.3,0.3,0.5c0,0,0,0,0,0c0,0.1,0.1,0.2,0.2,0.3c0.1,0.2,0.2,0.3,0.3,0.5c0,0,0,0,0,0c0,0.1,0.1,0.1,0.1,0.2
	c0,0,0,0,0,0c0,0,0,0,0,0c0.1,0.2,0.3,0.4,0.4,0.6c0,0,0,0,0,0c0,0,0,0,0,0c0,0,0,0,0,0l0,0c0,0,0,0.1,0,0.1c0,0,0,0,0,0
	c0.1,0.2,0.3,0.4,0.4,0.6C7.9,37.4,8,37.5,8,37.5c0,0,0,0,0,0c0.1,0.2,0.3,0.3,0.4,0.5c0,0,0,0,0,0c0,0,0.1,0.1,0.1,0.2
	c0.2,0.2,0.3,0.4,0.5,0.6c0,0,0,0,0,0.1l0,0c0.1,0.1,0.1,0.2,0.2,0.2l-0.2-0.2c0.2,0.2,0.4,0.4,0.6,0.6c0,0,0,0,0,0
	c0.1,0.1,0.1,0.1,0.2,0.2c0.1,0.1,0.3,0.3,0.4,0.4c0.1,0.1,0.1,0.1,0.2,0.2c0,0,0,0,0,0c0.2,0.2,0.4,0.4,0.6,0.5c0,0,0,0,0,0
	c0,0,0,0,0,0c0.1,0,0.1,0.1,0.1,0.1c0,0,0,0,0,0c0.2,0.2,0.4,0.3,0.6,0.5c0.1,0.1,0.2,0.1,0.2,0.2c0,0,0,0,0,0
	c0.2,0.1,0.3,0.3,0.5,0.4c0,0,0,0,0,0c0.1,0.1,0.2,0.1,0.2,0.2c0,0,0,0,0,0c0.2,0.1,0.4,0.3,0.5,0.4c0.1,0,0.1,0.1,0.2,0.1
	c0,0,0,0,0,0c0,0,0.1,0,0.1,0.1c0.2,0.1,0.3,0.2,0.5,0.3c0,0,0,0,0,0c0.1,0,0.1,0.1,0.2,0.1c0,0,0,0,0,0c0.3,0.2,0.5,0.3,0.8,0.5
	c0,0,0,0,0,0c0.1,0,0.1,0.1,0.2,0.1c0,0,0,0,0,0c0.2,0.1,0.4,0.2,0.6,0.3l0,0c0.1,0.1,0.3,0.1,0.4,0.2c0.1,0.1,0.3,0.1,0.4,0.2
	c0,0,0,0,0.1,0c0.1,0,0.1,0,0,0c0,0,0.1,0,0.1,0c0,0,0.1,0,0.1,0.1c0,0,0,0,0,0c0.2,0.1,0.5,0.2,0.7,0.3c0.1,0,0.1,0,0.1,0
	c0,0,0,0,0.1,0c0.3,0.1,0.5,0.2,0.8,0.3c0,0,0,0,0,0c0,0,0.1,0,0.2,0.1c0,0,0,0,0,0c0,0,0,0,0,0c0.2,0.1,0.4,0.2,0.6,0.2
	c0.1,0,0.1,0,0.1,0.1c0.3,0.1,0.6,0.2,0.8,0.3c0,0,0,0,0,0c0,0,0.1,0,0.2,0.1c0,0,0,0,0,0c0,0,0,0,0,0c0.2,0.1,0.5,0.2,0.9,0.2
	c0,0,0,0,0,0c1.9,0.4,3.7,0.5,5.4,0.5c14.3,0,18.9-11.6,18.9-11.6c0.2-0.5,0-1-0.4-1.2c-0.4-0.2-1-0.1-1.3,0.3
	c-4.1,5.4-11.4,6.5-18.5,4.8c-0.2-0.1-0.5-0.1-0.8-0.2c0,0,0,0,0,0c-0.1,0-0.1,0-0.1,0c0,0,0,0,0,0c-0.2-0.1-0.5-0.2-0.8-0.2
	c0,0,0,0,0,0c0,0,0,0,0,0c0,0,0,0-0.1,0c-0.2-0.1-0.4-0.1-0.6-0.2l0,0c-0.1,0-0.2-0.1-0.2-0.1c-0.2-0.1-0.5-0.2-0.7-0.3
	c0,0,0,0-0.1,0c0,0,0,0-0.1,0c-0.2-0.1-0.4-0.2-0.6-0.3c0,0,0,0,0,0c0,0,0,0-0.1-0.1c0,0,0,0,0,0c-0.1-0.1-0.3-0.1-0.4-0.2
	c0,0,0,0,0,0c-0.1-0.1-0.2-0.1-0.3-0.2c0,0,0,0,0,0c-0.2-0.1-0.4-0.2-0.6-0.3l0.1,0c-0.1-0.1-0.2-0.1-0.3-0.2l0,0
	c-0.3-0.2-0.5-0.3-0.7-0.5c0,0,0,0,0,0c0,0-0.1-0.1-0.2-0.1c0,0,0,0,0,0c-0.2-0.1-0.3-0.2-0.5-0.3l0,0c0,0-0.1-0.1-0.2-0.1
	c-0.2-0.1-0.3-0.2-0.5-0.3h0c0,0,0,0,0,0c-0.1-0.1-0.1-0.1-0.2-0.2c-0.2-0.1-0.3-0.2-0.4-0.3l0,0c-0.1-0.1-0.1-0.1-0.2-0.2
	c0,0,0,0,0,0c-0.2-0.1-0.4-0.3-0.6-0.5l0.1,0.1c-0.2-0.2-0.2-0.2-0.2-0.2l0.1,0c-0.2-0.2-0.4-0.4-0.6-0.5l0,0c0,0-0.1-0.1-0.1-0.1
	l0,0c-0.1-0.1-0.3-0.3-0.4-0.4c0,0,0,0,0,0c-0.1-0.1-0.1-0.1-0.2-0.2c-0.2-0.2-0.3-0.4-0.5-0.5c0,0,0,0,0,0h0
	c-0.2-0.2-0.3-0.4-0.5-0.6c0,0,0,0,0,0c0,0-0.1-0.1-0.1-0.2c-0.1-0.1-0.2-0.3-0.4-0.5l0,0c0-0.1-0.1-0.1-0.1-0.2l0,0
	c-0.1-0.2-0.3-0.4-0.4-0.6l0,0c-1.9-2.6-3.2-6.8-3.5-10.8c-0.4-4,0.3-7.9,1.7-9.8c0.2-0.3,0.3-0.7,0.1-1C10.7,8.2,10.4,8,10,8z
	 M28.2,8.6c0.1,0.5,0,1.1,0.1,1.6c0.6,2.3,1.9,4.5,3.7,6c0.6,0.5,1.3,0.9,2,1.3c0,0,0,0,0,0c0.4,0.2,0.8,0.3,1.2,0.5l0,0
	c0.3,0.1,0.6,0.2,1,0.3c0.9,0.2,1.8,0.3,2.6,0.4C38.3,18.8,37.8,19,37,19c-0.6,0-1.2-0.1-2-0.2h0c0,0-0.2-0.1-0.4-0.1
	c0,0-0.1,0-0.1,0c-0.1,0-0.2-0.1-0.3-0.1c0,0,0,0,0,0c-2.5-0.9-4.6-2.9-5.6-5.4C28.2,12.1,28,11,28,10C28,9.5,28.1,9.1,28.2,8.6z
	 M18,11.5c-0.3,1.7-0.2,3.4,0.3,5.1c1.1,3.5,3.3,6.5,6,8.7c0.1,0.1,0.1,0.1,0.2,0.1c0,0,0,0,0,0c0.2,0.2,0.5,0.4,0.8,0.6
	c0,0,0,0,0,0c0.1,0.1,0.2,0.2,0.4,0.3c0,0,0,0,0,0c0,0,0.1,0.1,0.2,0.1c0.2,0.1,0.4,0.2,0.5,0.3c0,0,0,0,0,0c0.1,0,0.1,0.1,0.1,0.1
	c0.1,0.1,0.3,0.2,0.5,0.3c0,0,0,0,0,0c0.1,0,0.1,0.1,0.2,0.1c0.1,0.1,0.2,0.1,0.4,0.2c0,0,0,0,0,0c0.2,0.1,0.5,0.2,0.7,0.3
	c0.1,0.1,0.2,0.1,0.2,0.1c0.2,0.1,0.4,0.2,0.6,0.3c0.1,0,0.2,0.1,0.3,0.1l0,0c0.2,0.1,0.4,0.1,0.6,0.2c0.1,0,0.1,0,0.2,0.1
	c0.3,0.1,0.6,0.2,0.9,0.3c3.8,1,7.3,0.5,10.3-0.9C39.7,29.5,37,30.9,33,31c-1.2,0-2.5-0.1-4-0.3c0,0,0,0,0,0c-0.1,0-0.3-0.1-0.6-0.2
	c-0.1,0-0.2-0.1-0.2-0.1c-0.2-0.1-0.3-0.1-0.5-0.2l0,0c0,0-0.1,0-0.2-0.1l0,0c0,0,0,0,0,0c-0.2-0.1-0.3-0.1-0.5-0.2c0,0,0,0,0,0
	c-0.1,0-0.1,0-0.2-0.1c-0.2-0.1-0.5-0.2-0.7-0.3c0,0,0,0,0,0c-0.1-0.1-0.2-0.1-0.3-0.2l0,0c0,0,0,0,0,0c0,0-0.1-0.1-0.1-0.1
	c0,0,0,0-0.1,0c-0.1-0.1-0.3-0.2-0.4-0.2c0,0-0.1,0-0.1,0c0,0,0,0,0,0c-0.2-0.1-0.3-0.2-0.5-0.3c0,0,0,0,0,0c0,0-0.1,0-0.2-0.1
	c-0.1-0.1-0.2-0.1-0.3-0.2c0,0-0.1,0-0.1-0.1c0,0,0,0,0,0c-0.2-0.2-0.4-0.3-0.7-0.5c0,0,0,0,0,0c0,0-0.1-0.1-0.1-0.1
	c-0.2-0.2-0.4-0.4-0.6-0.5c0,0,0,0,0,0c0,0,0,0,0,0c0,0,0,0,0,0c0,0,0,0,0,0c-0.2-0.2-0.4-0.4-0.6-0.5l0,0c-0.1-0.1-0.1-0.1-0.1-0.1
	c0,0,0,0,0,0c-0.2-0.2-0.4-0.4-0.6-0.6c0,0-0.1-0.1-0.1-0.1c-0.4-0.3-0.8-1-1.2-1.6c0,0,0,0,0,0c-0.4-0.6-0.8-1.2-1.1-1.9
	c0,0,0,0,0,0C16.8,18.8,16.6,14.8,18,11.5z M7.3,14.1C7,15.8,7,17.7,7.1,19.6c0.4,4.3,1.7,8.8,3.9,11.8c0.2,0.2,0.3,0.4,0.5,0.6
	c0.1,0.1,0.1,0.1,0.1,0.1c0,0,0,0,0.1,0.1c0.1,0.2,0.3,0.3,0.4,0.5c0,0,0,0,0,0c0,0,0.1,0.1,0.1,0.2c0.2,0.2,0.4,0.4,0.6,0.6
	c0,0,0,0,0,0c0.2,0.2,0.4,0.4,0.6,0.6c0.1,0.1,0.1,0.1,0.2,0.2c0,0,0,0,0,0l0,0c0.2,0.2,0.3,0.3,0.4,0.4c0,0,0,0,0,0
	c0,0,0.1,0.1,0.2,0.2c0,0,0,0,0,0c0.2,0.2,0.4,0.4,0.6,0.6c0,0,0,0,0.1,0.1c0.1,0.1,0.1,0.1-0.1-0.1c0,0,0.1,0.1,0.1,0.1
	c0.2,0.2,0.4,0.3,0.6,0.5c0.1,0.1,0.1,0.1,0.2,0.2c0,0,0,0,0,0c0.2,0.1,0.3,0.3,0.5,0.4c0,0,0,0,0,0c0.1,0,0.1,0.1,0.2,0.1
	c0,0,0,0,0,0c0.2,0.1,0.3,0.3,0.5,0.4c0,0,0.1,0.1,0.2,0.1c0,0,0,0,0,0c0.2,0.1,0.4,0.3,0.6,0.4c0.1,0,0.1,0.1,0.2,0.1c0,0,0,0,0,0
	c0.3,0.2,0.5,0.3,0.8,0.5c0,0,0,0,0,0c0.1,0,0.1,0.1,0.1,0.1c0,0,0.1,0,0.1,0.1c0.2,0.1,0.4,0.2,0.6,0.3l0,0c0,0,0,0,0,0
	c0.1,0.1,0.2,0.1,0.3,0.2c0.2,0.1,0.3,0.2,0.5,0.2c0,0,0,0,0,0c0,0,0,0,0,0c0.1,0,0.1,0.1,0.2,0.1c0.2,0.1,0.4,0.2,0.6,0.3
	c0,0,0,0,0,0c0,0,0.1,0,0.1,0.1c0.2,0.1,0.5,0.2,0.8,0.3c0,0,0,0,0,0c0.1,0,0.1,0.1,0.2,0.1c0,0,0,0,0,0c0.2,0.1,0.5,0.2,0.7,0.3
	c0,0,0.1,0,0.1,0c0.2,0.1,0.5,0.2,0.8,0.2c0.1,0,0.2,0.1,0.3,0.1c0.3,0.1,0.5,0.2,0.9,0.2c5.3,1.2,10.8,0.9,15.3-1.4
	C37.9,42.4,33.7,45,27,45c-1.5,0-3.2-0.1-5-0.5c-0.2,0-0.4-0.1-0.7-0.2c0,0,0,0,0,0c0,0-0.1,0-0.1,0l0,0c-0.2-0.1-0.5-0.2-0.7-0.2
	c0,0,0,0,0,0c0,0,0,0,0,0c0,0,0,0,0,0c-0.2-0.1-0.5-0.2-0.7-0.3c0,0,0,0-0.1,0c0,0,0,0-0.1-0.1l0,0c-0.2-0.1-0.5-0.2-0.7-0.3
	c0,0-0.1-0.1-0.1-0.1c0,0,0,0,0,0c-0.2-0.1-0.4-0.2-0.6-0.3h0c0,0-0.1,0-0.1-0.1c-0.1-0.1-0.1-0.1-0.1-0.1l0,0
	c-0.1-0.1-0.2-0.1-0.4-0.2c0,0,0,0,0,0c-0.1-0.1-0.2-0.1-0.3-0.1c0,0,0,0,0,0c-0.2-0.1-0.4-0.2-0.5-0.3l0,0c-0.1,0-0.2-0.1-0.2-0.1
	l0,0c-0.2-0.1-0.5-0.3-0.7-0.4c-0.1,0-0.1-0.1-0.2-0.1l0,0c0,0,0,0,0,0c-0.2-0.1-0.3-0.2-0.5-0.3c0,0-0.1,0-0.1-0.1
	c0,0-0.1-0.1-0.1-0.1c0,0,0,0,0,0c-0.2-0.1-0.3-0.2-0.5-0.3l0,0h0c-0.1-0.1-0.1-0.1-0.2-0.2l0,0c-0.2-0.1-0.3-0.2-0.4-0.3l0,0
	c-0.1-0.1-0.1-0.1-0.2-0.2c0,0,0,0,0,0c-0.2-0.2-0.4-0.3-0.5-0.5c0,0,0,0-0.1,0c0,0,0,0-0.1-0.1c-0.2-0.2-0.4-0.3-0.6-0.5l0,0
	c-0.1-0.1-0.1-0.1-0.2-0.2c0,0,0,0,0,0c-0.1-0.1-0.3-0.3-0.4-0.4c0,0,0,0,0,0c-0.1-0.1-0.1-0.1-0.1-0.1c-0.2-0.2-0.3-0.4-0.5-0.6
	c0,0,0,0,0,0c0,0,0,0,0,0c-0.2-0.2-0.3-0.4-0.5-0.6c0,0,0,0,0,0c0,0-0.1-0.1-0.1-0.1l0,0c0,0,0,0,0,0c-0.1-0.2-0.2-0.3-0.4-0.5
	c0-0.1-0.1-0.1-0.1-0.2c0,0,0,0,0,0c-0.1-0.2-0.3-0.3-0.4-0.5l0,0c0-0.1-0.1-0.1,0-0.1c0,0,0,0,0,0c0,0,0,0,0,0c0,0,0,0,0,0
	c0,0,0,0,0,0c-0.1-0.2-0.3-0.4-0.4-0.6c0,0,0,0,0,0c0,0-0.1-0.1-0.1-0.1l0,0c-0.1-0.2-0.2-0.3-0.3-0.5c0,0,0,0,0-0.1
	c0,0-0.1-0.1-0.1-0.2l0,0c-0.1-0.1-0.2-0.3-0.3-0.4v0c0,0,0,0,0,0c0-0.1-0.1-0.1-0.1-0.2c0,0,0,0,0-0.1c0-0.1-0.1-0.1,0,0
	c0,0,0-0.1,0-0.1c0-0.1-0.1-0.1-0.1-0.2c0,0,0,0,0,0c-0.1-0.1-0.1-0.3-0.2-0.4c0,0,0,0,0,0C4.5,27.2,4.2,19.1,7.3,14.1z M22.3,27.1
	L22.3,27.1C22.3,27.1,22.3,27.1,22.3,27.1C22.3,27.1,22.3,27.1,22.3,27.1z M10.7,37.6C10.7,37.6,10.7,37.6,10.7,37.6
	C10.7,37.6,10.7,37.6,10.7,37.6L10.7,37.6L10.7,37.6C10.7,37.7,10.7,37.7,10.7,37.6C10.7,37.6,10.7,37.6,10.7,37.6z M14.7,41.2
	L14.7,41.2C14.7,41.1,14.7,41.1,14.7,41.2C14.8,41.2,14.8,41.2,14.7,41.2z"/>
</svg>
