<?xml version="1.0" encoding="utf-8"?>
<!-- Generator: Adobe Illustrator 25.2.3, SVG Export Plug-In . SVG Version: 6.00 Build 0)  -->
<svg version="1.1" id="レイヤー_1" xmlns="http://www.w3.org/2000/svg" xmlns:xlink="http://www.w3.org/1999/xlink" x="0px"
	 y="0px" viewBox="0 0 64 64" style="enable-background:new 0 0 64 64;" xml:space="preserve">
<style type="text/css">
	.st0{fill:#333333;}
</style>
<path class="st0" d="M32,3c-10.2,0-14,5-14,8.8V18h13v2H11.8c-2.2,0-4.5,0.8-6.1,2.8S3,27.8,3,32s1,7.2,2.6,9.2S9.5,44,11.8,44H18
	v8.2C18,56,21.8,61,32,61s14-5,14-8.8V46H33v-2h19.2c2.2,0,4.5-0.8,6.1-2.8s2.6-5,2.6-9.2s-1-7.2-2.6-9.2S54.5,20,52.2,20H46v-8.2
	c0-1.9-0.9-4.2-3.2-5.9S37.1,3,32,3z M32,5c4.8,0,7.8,1.1,9.6,2.5s2.4,3,2.4,4.3V20h0v6.9c0,0.8-0.3,1.6-0.8,2.3
	c-0.7,0.9-1.7,1.5-2.7,1.7C40.2,31,39.9,31,39.6,31H24.4C21,31,18,33.7,18,37.1V42h-6.2c-1.7,0-3.3-0.6-4.6-2.1S5,35.9,5,32
	s0.9-6.4,2.2-7.9C8.4,22.6,10,22,11.8,22H33v-6H20v-4.2C20,9.4,22.4,5,32,5z M26.5,9c-1.4,0-2.5,1.1-2.5,2.5s1.1,2.5,2.5,2.5
	s2.5-1.1,2.5-2.5S27.9,9,26.5,9z M46,22h6.2c1.7,0,3.3,0.6,4.6,2.1c1.3,1.5,2.2,4,2.2,7.9s-0.9,6.4-2.2,7.9S54,42,52.2,42H31v6h13
	v4.2c0,2.4-2.4,6.8-12,6.8s-12-4.4-12-6.8V37.1c0-0.3,0-0.5,0.1-0.8c0.4-1.8,2.3-3.3,4.3-3.3h15.3c0.2,0,0.4,0,0.6,0
	c1.2-0.1,2.4-0.6,3.4-1.3h0c0.2-0.1,0.3-0.3,0.5-0.4h0c1.2-1.1,1.9-2.6,1.9-4.3V22z M15.6,24.1c-0.6,0-1,0.5-1,1v2c0,0.6,0.4,1,1,1
	c0.6,0,1-0.4,1-1c0,0,0,0,0,0v-2C16.7,24.5,16.2,24.1,15.6,24.1C15.7,24.1,15.6,24.1,15.6,24.1z M20.2,24.1c-0.6,0-1,0.5-1,1v2
	c0,0.6,0.4,1,1,1s1-0.4,1-1c0,0,0,0,0,0v-2C21.2,24.5,20.8,24.1,20.2,24.1C20.2,24.1,20.2,24.1,20.2,24.1z M24.8,24.1
	c-0.6,0-1,0.5-1,1v2c0,0.6,0.4,1,1,1s1-0.4,1-1c0,0,0,0,0,0v-2C25.8,24.5,25.3,24.1,24.8,24.1C24.8,24.1,24.8,24.1,24.8,24.1z
	 M29.3,24.1c-0.6,0-1,0.5-1,1v2c0,0.6,0.4,1,1,1s1-0.4,1-1c0,0,0,0,0,0v-2C30.4,24.5,29.9,24.1,29.3,24.1
	C29.4,24.1,29.3,24.1,29.3,24.1z M37.6,36c-0.6,0-1,0.5-1,1v2c0,0.6,0.4,1,1,1c0.6,0,1-0.4,1-1c0,0,0,0,0,0v-2
	C38.7,36.4,38.2,36,37.6,36C37.7,36,37.6,36,37.6,36z M42.2,36c-0.6,0-1,0.5-1,1v2c0,0.6,0.4,1,1,1c0.6,0,1-0.4,1-1c0,0,0,0,0,0v-2
	C43.2,36.4,42.8,36,42.2,36C42.2,36,42.2,36,42.2,36z M46.8,36c-0.6,0-1,0.5-1,1v2c0,0.6,0.4,1,1,1c0.6,0,1-0.4,1-1c0,0,0,0,0,0v-2
	C47.8,36.4,47.3,36,46.8,36C46.8,36,46.8,36,46.8,36z M51.3,36c-0.6,0-1,0.5-1,1v2c0,0.6,0.4,1,1,1c0.6,0,1-0.4,1-1c0,0,0,0,0,0v-2
	C52.4,36.4,51.9,36,51.3,36C51.4,36,51.3,36,51.3,36z M38.5,50c-1.4,0-2.5,1.1-2.5,2.5s1.1,2.5,2.5,2.5s2.5-1.1,2.5-2.5
	S39.9,50,38.5,50z"/>
</svg>
