<?xml version="1.0" encoding="utf-8"?>
<!-- Generator: Adobe Illustrator 25.2.3, SVG Export Plug-In . SVG Version: 6.00 Build 0)  -->
<svg version="1.1" id="レイヤー_1" xmlns="http://www.w3.org/2000/svg" xmlns:xlink="http://www.w3.org/1999/xlink" x="0px"
	 y="0px" viewBox="0 0 64 64" style="enable-background:new 0 0 64 64;" xml:space="preserve">
<style type="text/css">
	.st0{fill:#fff;}
</style>
<path class="st0" d="M7,4C5.2,4,3.8,5.6,4,7.4l5.5,45.2c0.2,2,1.7,3.7,3.6,4.2l17.5,5c0.9,0.3,1.8,0.3,2.7,0l18.4-5
	c2-0.5,3.5-2.3,3.7-4.3L60,7.3C60.2,5.5,58.8,4,57,4H7z M7,6h50c0.6,0,1.1,0.5,1,1.1l-0.1,1.4C57.7,8.2,57.4,8,57,8
	c-0.6,0-1,0.5-1,1v2c0,0.6,0.4,1,1,1c0.2,0,0.4-0.1,0.6-0.2l-4.1,40.5c0,0,0,0,0,0c-0.1,1.2-1,2.3-2.2,2.6c0,0,0,0,0,0l-18.4,5
	c-0.5,0.1-1.1,0.1-1.6,0l-17.5-5c-1.2-0.3-2-1.3-2.2-2.5L6.6,11.9c0.5,0.2,1.1,0,1.3-0.5C8,11.3,8,11.1,8,11V9c0-0.6-0.4-1-1-1
	c0,0,0,0,0,0C6.7,8,6.3,8.2,6.2,8.4L6,7.1c0,0,0,0,0,0C5.9,6.5,6.4,6,7,6z M12,8c-0.6,0-1,0.5-1,1v2c0,0.6,0.4,1,1,1
	c0.6,0,1-0.4,1-1c0,0,0,0,0,0V9C13,8.4,12.6,8,12,8C12,8,12,8,12,8z M17,8c-0.6,0-1,0.5-1,1v2c0,0.6,0.4,1,1,1c0.6,0,1-0.4,1-1
	c0,0,0,0,0,0V9C18,8.4,17.6,8,17,8C17,8,17,8,17,8z M22,8c-0.6,0-1,0.5-1,1v2c0,0.6,0.4,1,1,1c0.6,0,1-0.4,1-1c0,0,0,0,0,0V9
	C23,8.4,22.6,8,22,8C22,8,22,8,22,8z M27,8c-0.6,0-1,0.5-1,1v2c0,0.6,0.4,1,1,1c0.6,0,1-0.4,1-1c0,0,0,0,0,0V9C28,8.4,27.6,8,27,8
	C27,8,27,8,27,8z M32,8c-0.6,0-1,0.5-1,1v2c0,0.6,0.4,1,1,1c0.6,0,1-0.4,1-1c0,0,0,0,0,0V9C33,8.4,32.6,8,32,8C32,8,32,8,32,8z
	 M37,8c-0.6,0-1,0.5-1,1v2c0,0.6,0.4,1,1,1c0.6,0,1-0.4,1-1c0,0,0,0,0,0V9C38,8.4,37.6,8,37,8C37,8,37,8,37,8z M42,8
	c-0.6,0-1,0.5-1,1v2c0,0.6,0.4,1,1,1c0.6,0,1-0.4,1-1c0,0,0,0,0,0V9C43,8.4,42.6,8,42,8C42,8,42,8,42,8z M47,8c-0.6,0-1,0.5-1,1v2
	c0,0.6,0.4,1,1,1c0.6,0,1-0.4,1-1c0,0,0,0,0,0V9C48,8.4,47.6,8,47,8C47,8,47,8,47,8z M52,8c-0.6,0-1,0.5-1,1v2c0,0.6,0.4,1,1,1
	c0.6,0,1-0.4,1-1c0,0,0,0,0,0V9C53,8.4,52.6,8,52,8C52,8,52,8,52,8z M17,16c-1.2,0-2.2,1.1-2,2.3l0.8,4.8c0.1,0.5,0.5,0.8,1,0.8
	h23.5l-0.5,4H25c-0.6,0-1,0.4-1,1v6c0,0.6,0.4,1,1,1h13.8l-0.7,5.9l-6,1.8l-5.3-1.8l-0.3-2.2c0,0,0,0,0,0c-0.2-1-1-1.7-2-1.7h-4
	c-1.2,0-2.2,1.1-2,2.3c0,0,0,0,0,0l1,6.4c0.1,0.7,0.6,1.3,1.3,1.6l10.6,3.6c0,0,0,0,0,0C31.6,52,31.8,52,32,52c0.2,0,0.4,0,0.6-0.1
	l11.6-3.5c0.8-0.2,1.3-0.9,1.4-1.7l2.9-24.5l0.5-4c0.1-1.2-0.8-2.2-2-2.2H17z M17,18h30l-0.5,4l-2.9,24.5L32,50l-10.5-3.6l-1-6.4v0
	h4l0.4,2.8c0.1,0.4,0.3,0.7,0.7,0.8l6.1,2.1c0.2,0.1,0.4,0.1,0.6,0l7-2.1c0.4-0.1,0.7-0.4,0.7-0.8l0.9-7.6c0.1-0.5-0.3-1-0.9-1.1
	c0,0-0.1,0-0.1,0H26v-4h14.7c0.5,0,0.9-0.4,1-0.9l0.7-6c0.1-0.5-0.3-1-0.9-1.1c0,0-0.1,0-0.1,0H17.6L17,18z M42,52.3
	c-0.1,0-0.2,0-0.3,0l-2,0.5C39.2,53,38.9,53.5,39,54s0.7,0.9,1.2,0.7c0,0,0,0,0.1,0l2-0.5c0.5-0.1,0.9-0.7,0.7-1.2
	C42.9,52.6,42.5,52.3,42,52.3z M27,53.5c-0.6,0-1,0.5-1,1c0,0.4,0.3,0.8,0.7,1L32,57l4.2-1.1c0.5-0.1,0.9-0.7,0.7-1.2
	s-0.7-0.9-1.2-0.7c0,0,0,0-0.1,0l-3.7,1l-4.8-1.4C27.2,53.5,27.1,53.5,27,53.5z"/>
</svg>
