<?xml version="1.0" encoding="utf-8"?>
<!-- Generator: Adobe Illustrator 25.2.3, SVG Export Plug-In . SVG Version: 6.00 Build 0)  -->
<svg version="1.1" id="レイヤー_1" xmlns="http://www.w3.org/2000/svg" xmlns:xlink="http://www.w3.org/1999/xlink" x="0px"
	 y="0px" viewBox="0 0 64 64" style="enable-background:new 0 0 64 64;" xml:space="preserve">
<style type="text/css">
	.st0{fill:#fff;}
</style>
<path class="st0" d="M31.5,2C24.8,1.9,18.3,4,13,8.2C6.9,13.1,3.1,19.9,2.2,27.6C1.3,35.3,3.4,42.9,8.2,49
	c4.8,6.1,11.7,9.9,19.4,10.8c1.1,0.1,2.3,0.2,3.4,0.2c6.5,0,12.8-2.2,17.9-6.3c6.1-4.8,9.9-11.7,10.8-19.4
	c0.9-7.7-1.2-15.3-6.1-21.4C48.9,6.9,42.1,3.1,34.4,2.2C33.4,2.1,32.4,2,31.5,2z M30.9,4c1.1,0,2.1,0.1,3.2,0.2
	c14.8,1.7,25.4,15.2,23.7,30c-0.8,7.2-4.4,13.6-10.1,18c-5.7,4.5-12.7,6.5-19.9,5.6c-14.8-1.7-25.4-15.2-23.7-30
	c0.8-7.2,4.4-13.6,10.1-18C19.1,6,24.9,4,30.9,4z M34.1,9.1c-0.1,0-0.3,0-0.4,0c-0.5,0.1-0.9,0.7-0.7,1.2c0.8,3.2-0.8,4.6-3.7,6.8
	c-1.7,1.3-3.6,2.8-4.8,5.1c-2.3,5,2.4,8.5,4,9.7c0.2,0.1,0.4,0.2,0.6,0.2c0.3,0,0.6-0.1,0.8-0.4c0.3-0.4,0.2-1.1-0.2-1.4
	c-3.5-2.5-4.5-4.8-3.4-7.2c0.9-1.8,2.6-3.1,4.2-4.3c2.6-2,5.6-4.3,4.4-8.9C34.8,9.5,34.5,9.2,34.1,9.1z M39.1,17.2
	c-0.1,0-0.3,0-0.4,0c-0.3,0.1-6.7,1.7-8.9,5.4c-0.7,1.2-0.9,2.6-0.5,4c0.1,0.4,0.5,0.7,1,0.7c0.1,0,0.2,0,0.3,0
	c0.5-0.2,0.8-0.7,0.7-1.2c-0.2-0.8-0.2-1.6,0.3-2.4c1.4-2.4,6-4.1,7.6-4.5c0.5-0.1,0.9-0.7,0.7-1.2C39.8,17.5,39.4,17.2,39.1,17.2z
	 M14.1,17.2c-0.3,0-0.5,0.2-0.7,0.4c-0.3,0.4-0.2,1.1,0.2,1.4l1.6,1.2c0.2,0.1,0.4,0.2,0.6,0.2c0.3,0,0.6-0.1,0.8-0.4
	c0.3-0.4,0.2-1.1-0.2-1.4l-1.6-1.2C14.6,17.3,14.4,17.2,14.1,17.2z M49.8,19.4c-0.1,0-0.3,0.1-0.4,0.1c-0.5,0.3-0.6,0.9-0.3,1.4
	c0.4,0.7,0.8,1.3,1.1,2c0.2,0.4,0.5,0.6,0.9,0.6c0.1,0,0.3,0,0.4-0.1c0.5-0.2,0.7-0.8,0.5-1.3c-0.3-0.8-0.7-1.5-1.2-2.2
	C50.6,19.5,50.2,19.4,49.8,19.4z M11.5,22.1c-0.4,0-0.8,0.2-0.9,0.6c-0.2,0.5,0,1.1,0.6,1.3l1.9,0.7c0.1,0.1,0.2,0.1,0.4,0.1
	c0.4,0,0.8-0.2,0.9-0.6c0.2-0.5,0-1.1-0.6-1.3l-1.9-0.7C11.8,22.1,11.6,22.1,11.5,22.1z M52.7,25.7c-0.1,0-0.3,0-0.4,0
	c-0.5,0.1-0.9,0.7-0.7,1.2c0.8,3.5,0.7,7.3-0.3,10.7c-0.2,0.5,0.1,1.1,0.7,1.2c0.1,0,0.2,0,0.3,0c0.4,0,0.8-0.3,1-0.7
	c1.1-3.8,1.2-7.9,0.3-11.8C53.4,26,53.1,25.7,52.7,25.7z M10.3,27.6c-0.6-0.1-1,0.3-1.1,0.9c-0.1,0.5,0.3,1,0.9,1.1l2,0.2
	c0,0,0.1,0,0.1,0c0.5,0,0.9-0.4,1-0.9c0.1-0.6-0.3-1-0.9-1.1L10.3,27.6z M31.9,28c-0.3,0-0.5,0.1-0.7,0.2c-0.4,0.4-0.5,1-0.1,1.4
	c0.6,0.7,0.6,1.3,0.1,2.1c-0.3,0.5-0.2,1.1,0.3,1.4c0.2,0.1,0.4,0.2,0.5,0.2c0.3,0,0.6-0.2,0.8-0.4c1-1.5,0.9-3.2-0.3-4.5
	C32.4,28.1,32.2,28,31.9,28z M41.9,30.7c-0.6,0-1.3,0.1-2,0.3c-0.5,0.2-0.8,0.8-0.6,1.3c0.2,0.5,0.8,0.8,1.3,0.6
	c1.3-0.5,2.3-0.1,2.8,0.4c0.3,0.2,0.7,0.8,0.5,1.6c-0.3,1.4-2.2,2.7-5.1,3.5c-0.5,0.1-0.8,0.7-0.7,1.2c0.1,0.4,0.5,0.7,1,0.7
	c0.1,0,0.2,0,0.3,0c5-1.4,6.2-3.7,6.5-5c0.3-1.3-0.1-2.6-1.1-3.5C44,31.1,43,30.8,41.9,30.7z M25.6,30.8c-0.2,0-3.9,0-6.7,1.6
	c-1.3,0.8-1,1.7-0.9,2c0.3,0.7,1.6,1.2,3.4,1.5c-0.7,0.6-0.8,1.3-0.6,1.8c0.2,0.8,1.1,1.4,2.4,1.8c-0.5,0.3-0.8,0.7-0.8,1.2
	c-0.1,0.4-0.1,1.1,0.7,1.8c1.1,0.9,3.6,1.5,6.5,1.5c2.3,0,5-0.4,7.4-1.4c0.5-0.2,0.7-0.8,0.5-1.3s-0.8-0.7-1.3-0.5
	c-4.9,2.1-10.3,1.2-11.7,0.3c0.2-0.1,0.5-0.2,1-0.4c0,0,1.2-0.4,2.4-0.4c0.1,0,0.1,0,0.1,0c0.3,0,0.7,0,1,0c2.6,0,5.5-0.4,8.2-1.1
	c0.5-0.2,0.8-0.7,0.7-1.2c-0.2-0.5-0.7-0.8-1.2-0.7c-6.4,1.9-12.5,0.9-13.8,0c0.2-0.1,0.6-0.3,1.2-0.6c0.4-0.1,1.6-0.4,2.5-0.5
	c0,0,0,0,0,0c4,0,8.5-0.5,11.5-1.3c0.5-0.1,0.9-0.7,0.7-1.2c-0.1-0.5-0.7-0.9-1.2-0.7c-3.5,0.9-7.5,1.3-10.9,1.3c0,0,0,0-0.1,0
	c-0.1,0-0.2,0-0.2,0c-2.5,0-4.6-0.2-5.8-0.5c2.2-1,5-1,5-1c0.6,0,1-0.4,1-1C26.6,31.2,26.1,30.8,25.6,30.8z M12.1,32.9l-2,0.3
	c-0.5,0.1-0.9,0.6-0.8,1.1c0.1,0.5,0.5,0.9,1,0.9c0,0,0.1,0,0.1,0l2-0.3c0.5-0.1,0.9-0.6,0.8-1.1C13.1,33.2,12.6,32.8,12.1,32.9z
	 M13.6,37.8c-0.1,0-0.3,0-0.4,0.1l-1.8,0.8c-0.5,0.2-0.7,0.8-0.5,1.3c0.2,0.4,0.5,0.6,0.9,0.6c0.1,0,0.3,0,0.4-0.1l1.8-0.8
	c0.5-0.2,0.7-0.8,0.5-1.3C14.3,38,14,37.8,13.6,37.8z M21,41.5c-1.6-0.1-3.9,0.6-4.9,1.2c-1.2,0.7-1.4,1.5-1.3,2.1
	c0.2,1.3,1.9,1.8,2.5,2c3.6,0.9,7.4,1.3,11,1.3c7.9,0,14.7-1.9,15.4-4c0.2-0.7,0-1.6-1.2-2.2c-0.5-0.2-1.1,0-1.3,0.5
	c-0.2,0.5,0,1,0.4,1.3c-2,1.6-13,3.9-23.8,1.2c-0.4-0.1-0.7-0.3-0.9-0.3c0.8-0.7,3.7-1.4,4.4-1c0.4,0.3,1.1,0.2,1.4-0.2
	c0.3-0.5,0.2-1.1-0.2-1.4C22,41.7,21.5,41.5,21,41.5z M43.7,45.2c-0.6,0-1,0.4-1.1,0.9c-0.1,1.5-6.9,3.3-17.2,2.7
	c-0.5,0-1,0.4-1.1,0.9c0,0.6,0.4,1,0.9,1.1c0.2,0,1.9,0.1,4.2,0.1c5.6,0,14.8-0.6,15.1-4.6C44.7,45.7,44.3,45.2,43.7,45.2z"/>
</svg>
