<?xml version="1.0" encoding="utf-8"?>
<!-- Generator: Adobe Illustrator 25.2.3, SVG Export Plug-In . SVG Version: 6.00 Build 0)  -->
<svg version="1.1" id="レイヤー_1" xmlns="http://www.w3.org/2000/svg" xmlns:xlink="http://www.w3.org/1999/xlink" x="0px"
	 y="0px" viewBox="0 0 50 50" style="enable-background:new 0 0 50 50;" xml:space="preserve">
<style type="text/css">
	.st0{fill:#fff;}
</style>
<path class="st0" d="M25,2C12.3,2,2,12.3,2,25s10.3,23,23,23s23-10.3,23-23S37.7,2,25,2z M25,4c11.6,0,21,9.4,21,21s-9.4,21-21,21
	S4,36.6,4,25S13.4,4,25,4z M30.6,9c-1.7,0-3.6,0.4-5.5,1c-3.5,1.2-7.3,3.2-10,5.8c-3.2,3-3.8,5.7-3.6,6.8c0.8,3.9,6.1,6.4,8.3,8.3v0
	c-0.6,0.3-5.4,2.7-6.5,5.2c-1.2,2.6,0.2,4.4,1.1,4.7c2.8,0.8,5.6-0.6,7.2-2.9c1.5-2.2,1.4-5.1,0.7-6.5c0.9-0.2,1.9-0.3,3.2-0.2
	c3.7,0.4,4.4,2.8,4.3,3.7s-0.9,1.5-1.2,1.7s-0.3,0.2-0.3,0.3c0,0.2,0.2,0.2,0.4,0.1c0.3-0.1,2-0.8,2-2.6c0.1-2.3-2.1-4.8-5.9-4.8
	c-1.6,0-2.6,0.2-3.3,0.4c-0.1-0.1-0.1-0.1-0.2-0.2c-2.4-2.5-6.8-4.3-6.6-7.8c0.1-1.2,0.5-4.5,8.5-8.5c6.5-3.3,11.8-2.4,12.7-0.4
	c1.3,2.8-2.8,8.1-9.6,8.9c-2.6,0.3-3.9-0.7-4.3-1.1c-0.4-0.4-0.4-0.4-0.5-0.3c-0.2,0.1-0.1,0.5,0,0.7c0.2,0.5,1,1.5,2.4,1.9
	c1.2,0.4,4.3,0.6,8-0.8c4.1-1.6,7.3-6,6.4-9.7C37.6,10.3,34.5,8.9,30.6,9z M20.8,32.1c0.3,1.1,0.3,2.2,0,3.2c0,0.1-0.1,0.2-0.1,0.3
	s-0.1,0.2-0.1,0.3c-0.2,0.5-0.6,1-1,1.4c-1.2,1.3-2.9,1.8-3.7,1.4c-0.8-0.5-0.4-2.4,1-3.9c1.5-1.6,3.7-2.7,3.7-2.7l0,0
	C20.7,32.1,20.7,32.1,20.8,32.1z"/>
</svg>
