<?xml version="1.0" encoding="utf-8"?>
<!-- Generator: Adobe Illustrator 25.2.3, SVG Export Plug-In . SVG Version: 6.00 Build 0)  -->
<svg version="1.1" id="レイヤー_1" xmlns="http://www.w3.org/2000/svg" xmlns:xlink="http://www.w3.org/1999/xlink" x="0px"
	 y="0px" viewBox="0 0 50 50" style="enable-background:new 0 0 50 50;" xml:space="preserve">
<style type="text/css">
	.st0{fill:#fff;}
</style>
<path class="st0" d="M5,4C4.4,4,4,4.4,4,5v40c0,0.6,0.4,1,1,1h40c0.6,0,1-0.4,1-1V5c0-0.6-0.4-1-1-1H5z M6,6h38v38H6V6z M15,23v3.4
	h5V42h4V26.4h5V23H15z M36.7,23c-3.1,0-6.7,0.9-6.7,5.3c0,5.7,7.7,5.7,7.7,8.3c0,0.2,0.1,2-2.6,2c-2.7,0-5-1.7-5-1.7v4.2
	c0,0,11.9,3.8,11.9-4.8c0-5.6-7.8-5.3-7.8-8.1c0-1.1,0.8-2.1,2.9-2.1s4,1.3,4,1.3l0.1-3.7C41.3,23.6,39.1,23,36.7,23z"/>
</svg>
